<svg xmlns="http://www.w3.org/2000/svg" width="1679" height="342" fill="none" viewBox="0 0 1679 342"><path fill="#DABFB0" d="M880.208 266.316l-.423-.266-.077.122v.144h.5zm0 .684h-.5v.5h.5v-.5zm34.542 0v.5h.5v-.5h-.5zm0-.684h.5v-.095l-.035-.088-.465.183zm-2.052-44.118l-.492-.087-.001.001.493.086zm10.26-57.798v-.5h-.419l-.073.413.492.087zm-1.71-147.744v-.5h-.5v.5h.5zm0 .684h-.5v.09l.031.084.469-.174zm2.052 44.118l.492.088.001-.002-.493-.086zm-28.728 160.398l.489.104.002-.008.001-.008-.492-.088zm29.754-64.296l-.492-.088-.106.588h.598v-.5zm23.94-133.38l-.026-.5-.396.021-.07.39.492.089zm-68.558 242.136V267h1v-.684h-1zm.5 1.184h34.542v-1h-34.542v1zm35.042-.5v-.684h-1V267h1zm-.035-.867c-4.403-11.177-5.776-22.365-2.024-43.849l-.986-.172c-3.772 21.608-2.409 32.992 2.08 44.387l.93-.366zm-2.025-43.848l10.26-57.798-.984-.174-10.26 57.798.984.174zm9.768-57.385h28.386v-1h-28.386v1zm28.386 0c26.614 0 49.656-8.672 66.046-24.076 16.4-15.406 26.11-37.515 26.11-64.318h-1c0 26.549-9.61 48.387-25.79 63.59-16.18 15.205-38.97 23.804-65.366 23.804v1zm92.156-88.394c0-15.786-3.17-30.897-13.25-42.06-10.09-11.17-27.01-18.29-54.282-18.29v1c27.112 0 43.702 7.074 53.532 17.961 9.85 10.897 13 25.711 13 41.389h1zm-67.532-60.35h-54.72v1h54.72v-1zm-55.22.5v.684h1v-.684h-1zm.031.858c4.409 11.87 5.779 22.378 2.028 43.858l.986.172c3.773-21.612 2.407-32.307-2.076-44.378l-.938.348zm2.029 43.856L894.08 221.768l.984.176 28.728-160.398-.984-.176zm-28.725 160.382c-4.792 22.591-6.83 32.417-14.298 44.298l.846.532c7.58-12.059 9.646-22.069 14.43-44.622l-.978-.208zM976.31 23.996c18.566 0 29.75 4.598 36.33 13.143 6.6 8.58 8.66 21.254 8.66 37.657h1c0-16.429-2.05-29.404-8.87-38.267-6.85-8.897-18.408-13.533-37.12-13.533v1zm44.99 50.8c0 19.783-3.93 40.364-14.28 55.983-10.341 15.589-27.112 26.281-52.94 26.281v1c26.156 0 43.243-10.854 53.77-26.729 10.5-15.845 14.45-36.646 14.45-56.535h-1zm-67.22 82.264h-29.754v1h29.754v-1zm-29.262.588l23.94-133.38-.984-.176-23.94 133.38.984.176zm23.474-132.969c6.491-.341 15.374-.683 28.018-.683v-1c-12.664 0-21.565.342-28.07.685l.052.998zm67.588 241.637l-.41-.282-.09.128v.154h.5zm0 .684h-.5v.5h.5v-.5zm30.1 0v.5h.5v-.5h-.5zm0-.684h.5v-.073l-.02-.069-.48.142zm1.02-41.382l-.49-.108v.003l.49.105zm3.42-15.39l-.46-.181-.02.036-.01.037.49.108zm66.35-84.474l-.26.429.12.071h.14v-.5zm.68 0v.5h.34l.13-.309-.47-.191zm10.61-25.65l.46.191.28-.691h-.74v.5zm-71.82 81.054l-.49-.107.95.29-.46-.183zm18.12-82.764l.49.107.19-.857-.83.275.15.475zm-34.2 11.286l-.15-.475-.35.113v.362h.5zm0 .684h-.5v.167l.1.133.4-.3zm6.16 40.698l-.49-.114v.01l.49.104zm-13 60.876l-.49-.104v.002l.49.102zm-17.94 55.062V267h1v-.684h-1zm.5 1.184h30.1v-1h-30.1v1zm30.6-.5v-.684h-1V267h1zm-.02-.826c-3.73-12.531-2.73-23.715 1.03-41.135l-.98-.21c-3.76 17.464-4.81 28.852-1.01 41.629l.96-.284zm1.03-41.132l3.42-15.39-.98-.216-3.42 15.39.98.216zm3.4-15.317c12.65-32.662 22.55-54.158 31.71-67.486 9.14-13.314 17.48-18.379 26.99-18.379v-1c-9.98 0-18.58 5.366-27.82 18.813-9.22 13.434-19.16 35.03-31.81 67.69l.93.362zm58.7-85.865c3 0 5.31.668 6.92 1.639l.52-.858c-1.8-1.081-4.29-1.781-7.44-1.781v1zm7.18 1.71h.68v-1h-.68v1zm1.15-.309l10.6-25.65-.93-.382-10.6 25.65.93.382zm10.14-26.341c-14.73 0-27.59 7.11-39.37 20.822-11.77 13.701-22.48 34.026-32.92 60.549l.93.366c10.43-26.487 21.09-46.689 32.75-60.263 11.65-13.562 24.26-20.474 38.61-20.474v-1zm-71.34 81.661l18.13-82.764-.98-.214-18.12 82.764.97.214zm17.49-83.346l-34.2 11.286.31.95 34.2-11.286-.31-.95zm-34.55 11.761v.684h1v-.684h-1zm.1.984c2.54 3.381 5.32 8.022 6.84 14.52 1.52 6.499 1.78 14.885-.77 25.764l.98.228c2.58-11.009 2.32-19.552.76-26.22-1.55-6.669-4.41-11.433-7.01-14.892l-.8.6zm6.07 40.294l-13 60.876.98.208 13-60.876-.98-.208zm-13 60.878c-5.14 24.671-7.86 40.963-17.36 54.882l.82.564c9.65-14.125 12.4-30.665 17.52-55.242l-.98-.204zm194.86-52.224c0-19.06-4.81-34.06-13.11-44.304-8.31-10.256-20.08-15.704-33.91-15.704v1c13.54 0 25.02 5.325 33.13 15.333 8.12 10.019 12.89 24.773 12.89 43.675h1zm-47.02-60.008c-21.09 0-41.23 14.34-56.07 35.654-14.84 21.327-24.45 49.727-24.45 78.048h1c0-28.109 9.54-56.31 24.27-77.477 14.75-21.179 34.62-35.225 55.25-35.225v-1zm-80.52 113.702c0 19.06 4.8 34.06 13.1 44.304 8.31 10.256 20.09 15.704 33.91 15.704v-1c-13.54 0-25.02-5.325-33.13-15.333-8.12-10.019-12.88-24.773-12.88-43.675h-1zm47.01 60.008c21.09 0 41.23-14.34 56.07-35.654 14.85-21.327 24.46-49.727 24.46-78.048h-1c0 28.109-9.55 56.31-24.28 77.477-14.75 21.179-34.62 35.225-55.25 35.225v1zm-26.18-57.272c0-32.764 7.17-60.121 18.06-79.268 10.9-19.165 25.48-30.014 40.27-30.014v-1c-15.31 0-30.15 11.21-41.14 30.52-10.99 19.328-18.19 46.862-18.19 79.762h1zm58.33-109.282c5.04 0 9.27 1.177 12.77 3.406 3.5 2.23 6.31 5.532 8.5 9.83 4.39 8.613 6.27 21.17 6.27 36.88h1c0-15.754-1.88-28.505-6.38-37.334-2.26-4.423-5.18-7.875-8.86-10.22-3.68-2.345-8.09-3.562-13.3-3.562v1zm27.54 50.116c0 32.764-7.17 60.121-18.06 79.268-10.9 19.165-25.48 30.014-40.26 30.014v1c15.3 0 30.14-11.21 41.13-30.52 10.99-19.328 18.19-46.862 18.19-79.762h-1zm-58.32 109.282c-5.05 0-9.28-1.177-12.77-3.406-3.51-2.23-6.31-5.532-8.51-9.83-4.39-8.613-6.27-21.17-6.27-36.88h-1c0 15.754 1.88 28.505 6.38 37.334 2.26 4.423 5.18 7.875 8.86 10.22 3.68 2.345 8.1 3.562 13.31 3.562v-1zm44.51 73.346l-.3-.399-.31.231.14.354.47-.186zm.68 1.71l-.46.186.15.389.41-.085-.1-.49zm39.68-55.746l.49.1v-.003l-.49-.097zm36.93-187.074l.49.097.17-.852-.82.282.16.473zm-32.83 11.286l-.16-.473-.34.116v.357h.5zm0 .684h-.5v.167l.1.133.4-.3zm6.16 40.698l.49.099v-.001l-.49-.098zm-29.07 144.666l-.5-.099v.003l.5.096zm71.63-253.422c0-8.142-6.38-14.522-14.52-14.522v1c7.59 0 13.52 5.932 13.52 13.522h1zM1271.7 27.1c-8.14 0-14.52 6.38-14.52 14.522h1c0-7.59 5.93-13.522 13.52-13.522v-1zm-14.52 14.522c0 8.142 6.38 14.522 14.52 14.522v-1c-7.59 0-13.52-5.932-13.52-13.522h-1zm14.52 14.522c8.14 0 14.52-6.38 14.52-14.522h-1c0 7.59-5.93 13.522-13.52 13.522v1zm-79.13 282.862l.69 1.71.93-.372-.69-1.71-.93.372zm1.25 2.014c18.44-3.826 33.56-24.273 40.07-56.136l-.98-.2c-6.49 31.749-21.47 51.658-39.29 55.356l.2.98zm40.07-56.139l36.93-187.074-.98-.194-36.94 187.074.99.194zm36.28-187.644l-32.83 11.286.32.946 32.83-11.286-.32-.946zM1237 108.996v.684h1v-.684h-1zm.1.984c5.04 6.724 10.48 18.206 6.06 40.3l.99.196c4.47-22.366-1.03-34.14-6.25-41.096l-.8.6zm6.06 40.299l-29.07 144.666.99.198 29.07-144.666-.99-.198zm-29.07 144.669c-3.75 19.128-10.22 35.041-21.35 43.473l.6.798c11.44-8.668 17.97-24.903 21.74-44.079l-.99-.192zm75.61-134.652l-.47-.174-.27.75.79-.078-.05-.498zm71.48 70.794l.45.211.21-.441-.44-.217-.22.447zm-3.42-1.71l.22-.447-.39-.197-.24.365.41.279zm-69.43-64.98l.01-.5-.37-.005-.11.351.47.154zm61.22-58.324c5.57 0 9.7 1.35 12.44 3.966 2.73 2.611 4.16 6.563 4.16 11.95h1c0-5.557-1.48-9.813-4.47-12.674-2.99-2.856-7.41-4.242-13.13-4.242v1zm16.6 15.916c0 3.44-.65 7.095-2.63 10.748-1.98 3.654-5.32 7.336-10.73 10.804-10.85 6.947-29.99 13.008-63.14 16.254l.1.996c33.2-3.252 52.53-9.332 63.58-16.407 5.53-3.543 8.99-7.342 11.07-11.17 2.08-3.828 2.75-7.654 2.75-11.225h-1zm-75.98 38.478c12.28-33.087 36.09-54.394 59.38-54.394v-1c-23.9 0-47.97 21.785-60.32 55.046l.94.348zm71.23 70.173l-3.42-1.71-.44.894 3.42 1.71.44-.894zm-4.05-1.542c-12.62 18.755-26.17 28.849-42.34 28.849v1c16.66 0 30.47-10.426 43.17-29.291l-.83-.558zm-42.34 28.849c-9.62 0-17.74-3.365-23.49-11.377-5.77-8.042-9.18-20.829-9.18-39.765h-1c0 19.026 3.42 32.06 9.37 40.348 5.96 8.319 14.42 11.794 24.3 11.794v-1zm-32.67-51.142c0-15.339 2.38-29.65 6.47-42.254l-.95-.308c-4.12 12.704-6.52 27.121-6.52 42.562h1zm5.99-41.908c35.6.513 59.38-4.533 74.28-12.499 14.93-7.98 20.96-18.907 20.96-30.067h-1c0 10.728-5.77 21.347-20.43 29.185-14.68 7.851-38.27 12.894-73.8 12.381l-.01 1zm95.24-42.566c0-8.198-3.41-14.083-8.98-17.897-5.55-3.797-13.18-5.517-21.62-5.517v1c8.32 0 15.74 1.7 21.05 5.342 5.29 3.624 8.55 9.196 8.55 17.072h1zm-30.6-23.414c-24.65 0-47.53 14.566-64.22 36.104-16.69 21.542-27.25 50.12-27.25 78.282h1c0-27.926 10.48-56.291 27.04-77.67 16.57-21.383 39.18-35.716 63.43-35.716v-1zm-91.47 114.386c0 17.855 4.21 32.677 11.94 43.049 7.75 10.387 19.01 16.275 33.02 16.275v-1c-13.69 0-24.66-5.74-32.22-15.873-7.57-10.148-11.74-24.738-11.74-42.451h-1zm44.96 59.324c23.52 0 43.84-16.939 55.17-41.329l-.9-.422c-11.24 24.174-31.27 40.751-54.27 40.751v1zm166.94-50.774l.48.153.14-.444-.43-.173-.19.464zm-3.42-1.368l.19-.464-.43-.173-.2.417.44.22zm12.66-77.976l-.46.197.16.373.4-.08-.1-.49zm3.42-.684l.1.49.43-.087-.03-.444-.5.041zm-2.74-33.516l.5-.041-.02-.228-.18-.135-.3.404zm-9.73 113.08l-3.42-1.368-.37.928 3.42 1.368.37-.928zm-4.05-1.124c-7.68 15.686-15.41 24.841-22.88 30.077-7.47 5.229-14.71 6.579-21.48 6.579v1c6.92 0 14.38-1.386 22.05-6.759 7.66-5.366 15.49-14.679 23.2-30.457l-.89-.44zm-44.36 36.656c-12.33 0-21.57-4.636-27.75-13.885-6.21-9.285-9.37-23.276-9.37-42.045h-1c0 18.851 3.17 33.075 9.53 42.6 6.39 9.561 15.96 14.33 28.59 14.33v-1zm-37.12-55.93c0-30.853 8.95-54.601 20.81-70.625 11.87-16.044 26.62-24.293 38.2-24.293v-1c-12.01 0-27.02 8.509-39 24.698-12 16.21-21.01 40.171-21.01 71.22h1zm59.01-94.918c8.35 0 15.06 4.334 20.74 11.107 5.67 6.781 10.27 15.958 14.37 25.526l.92-.394c-4.11-9.584-8.75-18.875-14.53-25.774-5.78-6.907-12.75-11.465-21.5-11.465v1zm35.67 36.926l3.42-.684-.2-.98-3.42.684.2.98zm3.82-1.215l-2.74-33.516-1 .082 2.74 33.516 1-.082zm-2.94-33.879c-3.83-2.78-14.53-8.988-30.05-8.988v1c15.25 0 25.76 6.104 29.46 8.796l.59-.808zm-30.05-8.988c-23.46 0-45.05 13.45-60.76 33.839-15.71 20.392-25.58 47.774-25.58 75.759h1c0-27.761 9.79-54.928 25.37-75.149 15.58-20.223 36.91-33.449 59.97-33.449v-1zm-86.34 109.598c0 18.365 4.2 34.382 12.49 45.822 8.3 11.459 20.68 18.29 36.91 18.29v-1c-15.91 0-27.99-6.678-36.1-17.877-8.13-11.217-12.3-27.006-12.3-45.235h-1zm49.4 64.112c28.7 0 47.64-20.765 57.25-50.621l-.95-.306c-9.54 29.652-28.22 49.927-56.3 49.927v1zm124.84-39.146l.44.241.22-.402-.38-.255-.28.416zm-3.08-2.052l.28-.416-.41-.27-.28.398.41.288zm-38.99 8.208l.49.107v-.002l-.49-.105zm27.71-128.934v-.5h-.41l-.08.395.49.105zm40.35 0v.5h.4l.09-.392-.49-.108zm1.37-6.156l.49.108.13-.608h-.62v.5zm-40.36 0l-.48-.106-.14.606h.62v-.5zm5.48-25.308l.49.106.13-.606h-.62v.5zm-.69 0v-.5h-.16l-.14.099.3.401zm-41.38 30.78l-.3-.401-.2.15v.251h.5zm0 .684h-.5v.5h.5v-.5zm18.81 0l.49.106.13-.606h-.62v.5zm-28.04 129.618l-.49-.106v.008l.49.098zm16.07 32.306c7.52 0 14.99-3.674 22.23-10.35 7.23-6.676 14.28-16.388 20.96-28.555l-.88-.482c-6.65 12.115-13.63 21.726-20.76 28.302-7.13 6.577-14.37 10.085-21.55 10.085v1zm43.03-39.562l-3.08-2.052-.56.832 3.08 2.052.56-.832zm-3.77-1.924c-3.24 4.608-8.26 11.248-13.87 16.731-2.81 2.742-5.75 5.182-8.67 6.934-2.93 1.755-5.82 2.799-8.51 2.799v1c2.94 0 6.01-1.136 9.02-2.941 3.02-1.806 6.02-4.304 8.86-7.077 5.67-5.546 10.74-12.244 13.99-16.87l-.82-.576zm-31.05 26.464c-3.13 0-5.57-1.058-6.91-3.702-1.37-2.705-1.66-7.178-.13-14.159l-.97-.214c-1.55 7.041-1.32 11.802.21 14.826 1.56 3.084 4.43 4.249 7.8 4.249v-1zm-7.04-17.863l27.71-128.934-.98-.21-27.7 128.934.97.21zm27.22-128.539h40.35v-1h-40.35v1zm40.84-.392l1.37-6.156-.98-.216-1.37 6.156.98.216zm.88-6.764h-40.36v1h40.36v-1zm-39.87.606l5.48-25.308-.98-.212-5.47 25.308.97.212zm4.99-25.914h-.69v1h.69v-1zm-.99.099l-41.38 30.78.6.802 41.38-30.78-.6-.802zm-41.58 31.181v.684h1v-.684h-1zm.5 1.184h18.81v-1h-18.81v1zm18.32-.606l-28.04 129.618.98.212 28.04-129.618-.98-.212zm-28.04 129.626c-2.41 12.026-1.23 20.133 2.08 25.25 3.32 5.141 8.72 7.154 14.48 7.154v-1c-5.53 0-10.56-1.92-13.64-6.697-3.11-4.801-4.33-12.597-1.94-24.511l-.98-.196zm159.32-101.476l.13.485.39-.098-.02-.403-.5.016zm-1.02-32.49l.5-.016-.01-.282-.25-.138-.24.436zm-93.71 113.544l.47-.161-.15-.436-.44.112.12.485zm-2.74.684l-.12-.485-.39.097.01.401.5-.013zm1.03 38.646l-.5.013.01.221.16.145.33-.379zm93.71-119.7l-.46.201.17.386.41-.102-.12-.485zm3.23-.7l-1.02-32.49-1 .032 1.02 32.49 1-.032zm-1.28-32.91c-5.55-3.122-16.92-6.904-30.34-6.904v1c13.26 0 24.46 3.742 29.85 6.776l.49-.872zm-30.34-6.904c-11.55 0-22.53 3.361-30.63 10.338-8.12 6.987-13.3 17.562-13.3 31.886h1c0-14.062 5.08-24.349 12.95-31.128 7.88-6.788 18.62-10.096 29.98-10.096v-1zm-43.93 42.224c0 22.109 12.8 36.177 25.45 49.296 12.69 13.166 25.16 25.329 25.16 43.728h1c0-18.879-12.83-31.34-25.44-44.422-12.66-13.13-25.17-26.935-25.17-48.602h-1zm50.61 93.024c0 18.918-12.12 31.306-27.88 31.306v1c16.39 0 28.88-12.92 28.88-32.306h-1zm-27.88 31.306c-16.07 0-31.35-14.743-41.94-45.831l-.94.322c10.61 31.156 26.11 46.509 42.88 46.509v-1zm-42.53-46.155l-2.74.684.25.97 2.73-.684-.24-.97zm-3.12 1.182l1.03 38.646 1-.026-1.03-38.646-1 .026zm1.2 39.012c10.04 8.648 24.87 13.117 40 13.117v-1c-14.96 0-29.54-4.423-39.34-12.875l-.66.758zm40 13.117c13.1 0 24.85-3.963 33.34-11.76 8.5-7.802 13.67-19.4 13.67-34.568h-1c0 14.928-5.08 26.244-13.34 33.832-8.27 7.593-19.77 11.496-32.67 11.496v1zm47.01-46.328c0-23.639-12.95-38.728-25.78-52.158-6.43-6.73-12.81-13.021-17.59-19.79-4.77-6.755-7.93-13.944-7.93-22.444h-1c0 8.771 3.26 16.159 8.11 23.021 4.84 6.847 11.29 13.21 17.68 19.903 12.82 13.417 25.51 28.253 25.51 51.468h1zm-51.3-94.392c0-7.26 2.11-13.723 6-18.361 3.88-4.628 9.55-7.473 16.76-7.473v-1c-7.5 0-13.45 2.969-17.53 7.831-4.06 4.853-6.23 11.557-6.23 19.003h1zm22.76-25.834c12.01 0 23.85 7.973 35.11 33.559l.92-.402c-11.32-25.714-23.42-34.157-36.03-34.157v1zm35.69 33.843l2.74-.684-.25-.97-2.73.684.24.97zM42.75 268v.5h.5v-.5h-.5zm0-.684h.5v-.108l-.045-.099-.455.207zm-2.394-44.118l-.492-.087v.001l.492.086zm14.364-81.054v-.5h-.42l-.072.413.492.087zm58.14 27.36l-.465.184.125.316h.34v-.5zm2.736 0v.5h.428l.066-.423-.494-.077zm9.918-63.27l.494.077.09-.577h-.584v.5zm-2.736 0v-.5h-.254l-.15.205.404.295zm-66.69 29.07l-.492-.088-.105.588h.597v-.5zM75.924 24.496l.014-.5-.43-.012-.076.424.492.088zm49.248 1.368l-.014.5h.014v-.5zm40.014 42.066l-.454.209.173.377.402-.1-.121-.486zm2.736-.684l.121.485.409-.102-.031-.42-.499.037zm-3.762-49.59l.499-.038-.035-.462h-.464v.5zm-114.912 0v-.5h-.5v.5h.5zm0 .684h-.5v.09l.031.084.469-.174zM51.3 62.458l.492.088v-.002l-.492-.086zM22.572 222.856l.49.104v-.008l.002-.008-.492-.088zm-14.364 44.46l-.423-.266-.077.122v.144h.5zm0 .684h-.5v.5h.5v-.5zm35.042 0v-.684h-1V268h1zm-.045-.891c-5.071-11.157-6.11-22.329-2.356-43.825l-.985-.172c-3.771 21.596-2.758 32.996 2.43 44.411l.911-.414zm-2.357-43.824l14.364-81.054-.984-.174-14.364 81.054.984.174zm13.872-80.641h35.91v-1H54.72v1zm35.91 0c3 0 5.431.665 7.498 1.896 2.071 1.234 3.806 3.053 5.382 5.406 3.168 4.731 5.622 11.5 8.885 19.742l.93-.368c-3.235-8.174-5.74-15.085-8.984-19.93-1.631-2.435-3.466-4.378-5.701-5.709-2.24-1.334-4.853-2.037-8.01-2.037v1zm22.23 27.36h2.736v-1h-2.736v1zm3.23-.423l9.918-63.27-.988-.154-9.918 63.27.988.154zm9.424-63.847h-2.736v1h2.736v-1zm-3.14.205c-4.642 6.361-9.31 13.581-14.375 19.242-5.071 5.667-10.415 9.623-16.343 9.623v1c6.384 0 11.984-4.252 17.088-9.956 5.109-5.711 9.846-13.026 14.438-19.319l-.808-.59zm-30.718 28.865H56.088v1h35.568v-1zm-35.076.588L76.416 24.584l-.984-.176-19.836 110.808.984.176zM75.91 24.996l49.248 1.368.028-1-49.248-1.368-.028 1zm49.262 1.368c8.742 0 15.192 3.011 21.173 9.708 6.014 6.734 11.544 17.184 18.387 32.067l.908-.418c-6.837-14.872-12.422-25.454-18.549-32.315-6.16-6.897-12.877-10.042-21.919-10.042v1zm40.135 42.051l2.736-.684-.242-.97-2.736.684.242.97zm3.114-1.207l-3.762-49.59-.998.076 3.762 49.59.998-.076zm-4.261-50.052H49.248v1H164.16v-1zm-115.412.5v.684h1v-.684h-1zm.031.858c4.409 11.87 5.779 22.378 2.028 43.858l.985.172c3.774-21.612 2.408-32.307-2.075-44.378l-.938.348zm2.029 43.856L22.08 222.768l.984.176L51.792 62.546l-.984-.176zM22.083 222.752c-4.792 22.591-6.83 32.417-14.298 44.298l.846.532c7.58-12.059 9.646-22.069 14.43-44.622l-.978-.208zM7.708 267.316V268h1v-.684h-1zm.5 1.184H42.75v-1H8.208v1zm146.421-107.204l-.468-.174-.279.75.796-.078-.049-.498zm71.478 70.794l.454.211.205-.441-.435-.217-.224.447zm-3.42-1.71l.224-.447-.393-.197-.245.365.414.279zm-69.426-64.98l.008-.5-.369-.005-.114.351.475.154zm61.218-58.324c5.57 0 9.7 1.35 12.437 3.966 2.734 2.611 4.163 6.563 4.163 11.95h1c0-5.557-1.477-9.813-4.472-12.674-2.991-2.856-7.411-4.242-13.128-4.242v1zm16.6 15.916c0 3.44-.649 7.095-2.632 10.748-1.984 3.654-5.318 7.336-10.732 10.804-10.843 6.947-29.985 13.008-63.134 16.254l.097.996c33.199-3.252 52.532-9.332 63.577-16.407 5.53-3.543 8.993-7.342 11.071-11.17 2.078-3.828 2.753-7.654 2.753-11.225h-1zm-75.981 38.478c12.28-33.087 36.088-54.394 59.381-54.394v-1c-23.903 0-47.974 21.785-60.318 55.046l.937.348zm71.233 70.173l-3.42-1.71-.447.894 3.42 1.71.447-.894zm-4.058-1.542c-12.617 18.755-26.166 28.849-42.336 28.849v1c16.663 0 30.474-10.426 43.165-29.291l-.829-.558zm-42.336 28.849c-9.615 0-17.744-3.365-23.491-11.377-5.768-8.042-9.183-20.829-9.183-39.765h-1c0 19.026 3.426 32.06 9.371 40.348 5.967 8.319 14.425 11.794 24.303 11.794v-1zm-32.674-51.142c0-15.339 2.386-29.65 6.474-42.254l-.951-.308c-4.121 12.704-6.523 27.121-6.523 42.562h1zm5.991-41.908c35.606.513 59.387-4.533 74.286-12.499 14.924-7.98 20.955-18.907 20.955-30.067h-1c0 10.728-5.768 21.347-20.426 29.185-14.684 7.851-38.27 12.894-73.8 12.381l-.015 1zm95.241-42.566c0-8.198-3.413-14.083-8.981-17.897-5.542-3.797-13.179-5.517-21.615-5.517v1c8.323 0 15.734 1.7 21.05 5.342 5.29 3.624 8.546 9.196 8.546 17.072h1zM217.899 99.92c-24.656 0-47.531 14.566-64.221 36.104-16.693 21.542-27.251 50.12-27.251 78.282h1c0-27.926 10.475-56.291 27.042-77.67 16.57-21.383 39.181-35.716 63.43-35.716v-1zm-91.472 114.386c0 17.855 4.206 32.677 11.941 43.049 7.747 10.387 19.011 16.275 33.019 16.275v-1c-13.693 0-24.66-5.74-32.217-15.873-7.569-10.148-11.743-24.738-11.743-42.451h-1zm44.96 59.324c23.517 0 43.838-16.939 55.174-41.329l-.907-.422c-11.236 24.174-31.271 40.751-54.267 40.751v1zm179.297-153.374l.483.128.056-.211-.117-.184-.422.267zm-12.654 47.88l.456.203.017-.037.01-.038-.483-.128zm-7.182 30.78l.482.133-.94-.335.458.202zm-19.836 72.162l-.483-.133-.21.766.782-.141-.089-.492zm35.91-6.498l.089.492.411-.074v-.418h-.5zm0-.342h.5v-.336l-.311-.127-.189.463zm-8.55-33.174l-.484-.127-.002.008.486.119zm34.2-130.644l.483.127.164-.627h-.647v.5zm-1.368 0v-.5h-.167l-.133.1.3.4zm-8.208 6.156l-.241.438.282.156.259-.194-.3-.4zm-94.392 151.006c-5.17 0-9.699-1.739-12.966-6.618-3.294-4.921-5.344-13.094-5.344-26.056h-1c0 13.03 2.053 21.444 5.513 26.612 3.489 5.21 8.364 7.062 13.797 7.062v-1zm-18.31-32.674c0-25.211 8.436-54.278 22.158-77.034 13.736-22.78 32.671-39.088 53.608-39.088v-1c-21.472 0-40.67 16.695-54.465 39.572-13.809 22.901-22.301 52.145-22.301 77.55h1zm75.766-116.122c12.491 0 20.193 5.391 24.201 11.737l.845-.534c-4.2-6.65-12.229-12.203-25.046-12.203v1zm24.14 11.342l-12.654 47.88.967.256 12.654-47.88-.967-.256zm-12.627 47.805c-8.21 18.472-18.455 40.922-30.185 58.752-5.866 8.915-12.087 16.652-18.593 22.155-6.506 5.504-13.257 8.742-20.191 8.742v1c7.258 0 14.23-3.389 20.837-8.978 6.608-5.59 12.891-13.415 18.782-22.369 11.782-17.909 22.057-40.432 30.263-58.896l-.913-.406zm-7.208 30.85l-19.836 72.162.965.266 19.836-72.162-.965-.266zm-19.264 72.787l35.91-6.498-.178-.984-35.91 6.498.178.984zm36.321-6.99v-.342h-1v.342h1zm-.311-.805c-3.724-1.523-6.346-3.199-8.134-5.11-1.779-1.903-2.754-4.063-3.147-6.602-.394-2.552-.2-5.494.379-8.952.579-3.457 1.536-7.392 2.648-11.928l-.971-.238c-1.11 4.527-2.077 8.5-2.663 12.001-.586 3.5-.799 6.564-.381 9.27.42 2.719 1.476 5.07 3.405 7.132 1.921 2.054 4.685 3.798 8.485 5.353l.379-.926zm-8.256-32.584l34.2-130.644-.967-.254-34.2 130.644.967.254zM372.572 99.92h-1.368v1h1.368v-1zm-1.668.1l-8.208 6.156.6.8 8.208-6.156-.6-.8zm-7.667 6.118c-6.927-3.81-16.589-6.218-27.259-6.218v1c10.533 0 20.023 2.38 26.777 6.094l.482-.876zm-27.259-6.218c-27.562 0-53.941 16.445-73.409 40.886-19.472 24.448-32.085 56.96-32.085 89.232h1c0-32.024 12.523-64.321 31.868-88.608 19.349-24.294 45.467-40.51 72.626-40.51v-1zM230.484 230.038c0 14.588 2.83 25.478 7.913 32.734 5.101 7.281 12.441 10.858 21.315 10.858v-1c-8.568 0-15.593-3.434-20.496-10.432-4.919-7.022-7.732-17.678-7.732-32.16h-1zm29.228 43.592c14.398 0 27.775-8.413 39.788-21.884 12.019-13.478 22.731-32.083 31.805-52.628l-.915-.404c-9.052 20.495-19.714 38.997-31.636 52.366-11.927 13.376-25.055 21.55-39.042 21.55v1zm168.061-39.146l.438.241.221-.402-.382-.255-.277.416zm-3.078-2.052l.277-.416-.406-.27-.28.398.409.288zm-38.988 8.208l.488.107v-.002l-.488-.105zm27.702-128.934v-.5h-.404l-.085.395.489.105zm40.356 0v.5h.401l.087-.392-.488-.108zm1.368-6.156l.488.108.135-.608h-.623v.5zm-40.356 0l-.489-.106-.131.606h.62v-.5zm5.472-25.308l.488.106.131-.606h-.619v.5zm-.684 0v-.5h-.166l-.133.099.299.401zm-41.382 30.78l-.299-.401-.201.15v.251h.5zm0 .684h-.5v.5h.5v-.5zm18.81 0l.488.106.131-.606h-.619v.5zm-28.044 129.618l-.489-.106-.002.008.491.098zm16.074 32.306c7.523 0 14.991-3.674 22.227-10.35 7.236-6.676 14.277-16.388 20.961-28.555l-.877-.482c-6.654 12.115-13.635 21.726-20.763 28.302-7.128 6.577-14.366 10.085-21.548 10.085v1zm43.027-39.562l-3.078-2.052-.555.832 3.078 2.052.555-.832zm-3.764-1.924c-3.243 4.608-8.267 11.248-13.877 16.731-2.806 2.742-5.746 5.182-8.672 6.934-2.929 1.755-5.81 2.799-8.506 2.799v1c2.946 0 6.008-1.136 9.02-2.941 3.017-1.806 6.019-4.304 8.857-7.077 5.675-5.546 10.74-12.244 13.995-16.87l-.817-.576zm-31.055 26.464c-3.128 0-5.566-1.058-6.908-3.702-1.372-2.705-1.66-7.178-.128-14.159l-.977-.214c-1.545 7.041-1.321 11.802.214 14.826 1.565 3.084 4.428 4.249 7.799 4.249v-1zm-7.036-17.863l27.702-128.934-.977-.21-27.702 128.934.977.21zm27.214-128.539h40.356v-1h-40.356v1zm40.844-.392l1.368-6.156-.977-.216-1.368 6.156.977.216zm.88-6.764h-40.356v1h40.356v-1zm-39.868.606l5.472-25.308-.977-.212-5.472 25.308.977.212zm4.984-25.914h-.684v1h.684v-1zm-.983.099l-41.382 30.78.597.802 41.382-30.78-.597-.802zm-41.583 31.181v.684h1v-.684h-1zm.5 1.184h18.81v-1h-18.81v1zm18.321-.606L368.46 241.218l.977.212 28.044-129.618-.977-.212zm-28.046 129.626c-2.405 12.026-1.229 20.133 2.08 25.25 3.324 5.141 8.725 7.154 14.485 7.154v-1c-5.527 0-10.557-1.92-13.645-6.697-3.104-4.801-4.322-12.597-1.939-24.511l-.981-.196zm167.536-42.994l.483.129-.94-.332.457.203zM516.5 271.078l-.483-.129-.203.76.774-.139-.088-.492zm36.252-6.498l.088.492.412-.074v-.418h-.5zm0-.342h.5v-.336l-.311-.127-.189.463zm-8.55-33.174l-.484-.127-.001.008.485.119zm32.832-125.514l.484.127.164-.627h-.648v.5zm-35.91 0v-.5h-.5v.5h.5zm0 .684h-.5v.342l.318.124.182-.466zm10.602 32.148l-.48-.139-.004.012.484.127zm-5.472 20.862l.469.174.008-.023.007-.024-.484-.127zm-89.946 65.664l.482.135.003-.011-.485-.124zm30.438-119.358l.485.124.159-.624h-.644v.5zm-35.226 0v-.5h-.5v.5h.5zm0 .684h-.5v.342l.318.124.182-.466zm10.944 31.806l.484.126.002-.008-.486-.118zm-22.572 86.526l-.484-.126.484.126zm95.619-26.463l-19.494 72.846.966.258 19.494-72.846-.966-.258zm-18.923 73.467l36.252-6.498-.176-.984-36.252 6.498.176.984zm36.664-6.99v-.342h-1v.342h1zm-.311-.805c-3.723-1.523-6.345-3.199-8.133-5.11-1.78-1.903-2.755-4.063-3.147-6.602-.394-2.552-.2-5.494.378-8.952.579-3.457 1.536-7.392 2.649-11.928l-.971-.238c-1.111 4.527-2.078 8.5-2.664 12.001-.586 3.5-.798 6.564-.38 9.27.42 2.719 1.475 5.07 3.404 7.132 1.921 2.054 4.685 3.798 8.486 5.353l.378-.926zm-8.255-32.584l32.832-125.514-.968-.254-32.832 125.514.968.254zm32.348-126.141h-35.91v1h35.91v-1zm-36.41.5v.684h1v-.684h-1zm.318 1.15c6.855 2.675 10.335 7.33 11.666 12.903 1.339 5.607.508 12.178-1.362 18.64l.96.278c1.892-6.534 2.771-13.301 1.374-19.151-1.405-5.884-5.107-10.805-12.274-13.602l-.364.932zm10.3 31.555l-5.471 20.862.967.254 5.472-20.862-.968-.254zm-5.456 20.815c-10.934 29.383-23.738 54.045-36.824 71.35-6.543 8.653-13.145 15.452-19.606 20.084-6.461 4.633-12.752 7.078-18.684 7.078v1c6.209 0 12.701-2.557 19.267-7.265 6.568-4.709 13.239-11.59 19.821-20.293 13.162-17.408 26.008-42.165 36.963-71.606l-.937-.348zm-75.114 98.512c-6.188 0-11.206-2.414-13.921-7.598-2.735-5.222-3.196-13.365.039-24.941l-.963-.27c-3.264 11.68-2.869 20.124.038 25.675 2.928 5.589 8.342 8.134 14.807 8.134v-1zm-13.879-32.55l30.438-119.358-.969-.248-30.438 119.358.969.248zm29.953-119.982H451.52v1h35.226v-1zm-35.726.5v.684h1v-.684h-1zm.318 1.15c6.852 2.674 10.249 7.327 11.581 12.861 1.34 5.57.592 12.061-.941 18.361l.972.236c1.545-6.354 2.337-13.03.941-18.831-1.405-5.838-5.019-10.761-12.189-13.559l-.364.932zm10.642 31.214l-22.572 86.526.968.252 22.572-86.526-.968-.252zm-22.572 86.526c-4.464 17.172-2.948 29.471 2.069 37.498 5.027 8.042 13.5 11.692 22.697 11.692v-1c-8.929 0-17.042-3.532-21.849-11.222-4.815-7.705-6.376-19.688-1.949-36.716l-.968-.252zm24.766 49.19c13.551 0 27.099-8.678 39.487-22.352 12.401-13.688 23.713-32.462 32.79-52.843l-.914-.406c-9.049 20.317-20.309 38.992-32.617 52.578-12.322 13.601-25.62 22.023-38.746 22.023v1zm98.269-6.314l-.413-.282-.087.128v.154h.5zm0 .684h-.5v.5h.5v-.5zm30.096 0v.5h.5v-.5h-.5zm0-.684h.5v-.073l-.021-.069-.479.142zm1.026-41.382l-.488-.108-.001.003.489.105zm3.42-15.39l-.466-.181-.014.036-.008.037.488.108zm66.348-84.474l-.257.429.119.071h.138v-.5zm.684 0v.5h.334l.128-.309-.462-.191zm10.602-25.65l.462.191.286-.691h-.748v.5zm-71.82 81.054l-.488-.107.953.29-.465-.183zm18.126-82.764l.489.107.187-.857-.833.275.157.475zm-34.2 11.286l-.157-.475-.343.113v.362h.5zm0 .684h-.5v.167l.1.133.4-.3zm6.156 40.698l-.487-.114-.002.01.489.104zm-12.996 60.876l-.489-.104v.002l.489.102zm-17.942 55.062V268h1v-.684h-1zm.5 1.184h30.096v-1h-30.096v1zm30.596-.5v-.684h-1V268h1zm-.021-.826c-3.725-12.531-2.721-23.715 1.036-41.135l-.978-.21c-3.766 17.464-4.815 28.852-1.016 41.629l.958-.284zm1.035-41.132l3.42-15.39-.976-.216-3.42 15.39.976.216zm3.398-15.317c12.654-32.662 22.555-54.158 31.709-67.486 9.146-13.314 17.478-18.379 26.991-18.379v-1c-9.981 0-18.578 5.366-27.815 18.813-9.228 13.434-19.163 35.03-31.817 67.69l.932.362zm58.7-85.865c3.006 0 5.307.668 6.925 1.639l.514-.858c-1.802-1.081-4.289-1.781-7.439-1.781v1zm7.182 1.71h.684v-1h-.684v1zm1.146-.309l10.602-25.65-.924-.382-10.602 25.65.924.382zm10.14-26.341c-14.722 0-27.59 7.11-39.367 20.822-11.768 13.701-22.48 34.026-32.918 60.549l.93.366c10.424-26.487 21.087-46.689 32.746-60.263 11.65-13.562 24.261-20.474 38.609-20.474v-1zm-71.332 81.661l18.127-82.764-.977-.214-18.126 82.764.976.214zm17.481-83.346l-34.2 11.286.314.95 34.2-11.286-.314-.95zm-34.543 11.761v.684h1v-.684h-1zm.1.984c2.536 3.381 5.32 8.022 6.839 14.52 1.519 6.499 1.78 14.885-.77 25.764l.974.228c2.58-11.009 2.328-19.552.769-26.22-1.558-6.669-4.418-11.433-7.012-14.892l-.8.6zm6.067 40.294l-12.996 60.876.978.208 12.996-60.876-.978-.208zm-12.996 60.878c-5.14 24.671-7.86 40.963-17.366 54.882l.826.564c9.646-14.125 12.398-30.665 17.519-55.242l-.979-.204zm95.514-50.856l-.468-.174-.279.75.796-.078-.049-.498zm71.478 70.794l.454.211.205-.441-.435-.217-.224.447zm-3.42-1.71l.224-.447-.393-.197-.246.365.415.279zm-69.426-64.98l.007-.5-.368-.005-.114.351.475.154zm61.218-58.324c5.57 0 9.699 1.35 12.437 3.966 2.734 2.611 4.163 6.563 4.163 11.95h1c0-5.557-1.477-9.813-4.472-12.674-2.991-2.856-7.411-4.242-13.128-4.242v1zm16.6 15.916c0 3.44-.649 7.095-2.632 10.748-1.984 3.654-5.318 7.336-10.732 10.804-10.843 6.947-29.985 13.008-63.134 16.254l.097.996c33.199-3.252 52.532-9.332 63.577-16.407 5.53-3.543 8.993-7.342 11.07-11.17 2.079-3.828 2.754-7.654 2.754-11.225h-1zm-75.981 38.478c12.28-33.087 36.088-54.394 59.381-54.394v-1c-23.903 0-47.974 21.785-60.318 55.046l.937.348zm71.233 70.173l-3.42-1.71-.447.894 3.42 1.71.447-.894zm-4.059-1.542c-12.617 18.755-26.165 28.849-42.335 28.849v1c16.663 0 30.474-10.426 43.165-29.291l-.83-.558zm-42.335 28.849c-9.615 0-17.744-3.365-23.491-11.377-5.768-8.042-9.183-20.829-9.183-39.765h-1c0 19.026 3.426 32.06 9.371 40.348 5.966 8.319 14.425 11.794 24.303 11.794v-1zm-32.674-51.142c0-15.339 2.386-29.65 6.474-42.254l-.951-.308c-4.121 12.704-6.523 27.121-6.523 42.562h1zm5.991-41.908c35.606.513 59.387-4.533 74.286-12.499 14.924-7.98 20.955-18.907 20.955-30.067h-1c0 10.728-5.768 21.347-20.426 29.185-14.685 7.851-38.27 12.894-73.801 12.381l-.014 1zm95.241-42.566c0-8.198-3.413-14.083-8.981-17.897-5.542-3.797-13.179-5.517-21.615-5.517v1c8.323 0 15.734 1.7 21.05 5.342 5.29 3.624 8.546 9.196 8.546 17.072h1zM738.18 99.92c-24.656 0-47.531 14.566-64.221 36.104-16.693 21.542-27.251 50.12-27.251 78.282h1c0-27.926 10.475-56.291 27.042-77.67 16.569-21.383 39.181-35.716 63.43-35.716v-1zm-91.472 114.386c0 17.855 4.206 32.677 11.941 43.049 7.747 10.387 19.011 16.275 33.019 16.275v-1c-13.694 0-24.66-5.74-32.217-15.873-7.569-10.148-11.743-24.738-11.743-42.451h-1zm44.96 59.324c23.516 0 43.838-16.939 55.174-41.329l-.907-.422c-11.236 24.174-31.271 40.751-54.267 40.751v1zm177.244-144.482l.489.104.018-.082-.01-.084-.497.062zm-8.892 41.724l.459.2.02-.047.01-.049-.489-.104zm-3.078 20.862l.485.121-.943-.321.458.2zm-19.836 79.344l-.485-.121-.188.754.764-.141-.091-.492zm35.226-6.498l.091.492.409-.076v-.416h-.5zm0-.342h.5v-.336l-.31-.127-.19.463zm-8.55-33.174l.486.119.002-.007.001-.007-.489-.105zM913.03 1.582l.489.105.183-.853-.828.273.156.475zm-34.2 11.286l-.156-.475-.344.114v.361h.5zm0 .684h-.5v.197l.134.144.366-.341zm6.156 40.698l.489.105.001-.005-.49-.1zm-10.944 50.958l-.189.463.553.226.125-.584-.489-.105zm-83.448 152.374c-5.865 0-10.56-1.833-13.821-6.663-3.292-4.875-5.173-12.873-5.173-25.327h-1c0 12.512 1.882 20.759 5.344 25.887 3.494 5.174 8.546 7.103 14.65 7.103v-1zm-18.994-31.99c0-25.738 7.418-54.984 19.394-77.786 5.988-11.4 13.103-21.167 20.979-28.077 7.875-6.91 16.484-10.943 25.475-10.943v-1c-9.305 0-18.139 4.175-26.134 11.191-7.995 7.015-15.18 16.892-21.205 28.364-12.049 22.94-19.509 52.347-19.509 78.251h1zm65.848-116.806c20.645 0 29.978 12.499 30.968 20.424l.993-.124c-1.062-8.491-10.881-21.3-31.961-21.3v1zm30.975 20.258l-8.892 41.724.978.208 8.892-41.724-.978-.208zm-8.861 41.628c-8.035 18.465-18.28 40.23-30.05 57.373-5.885 8.572-12.137 15.967-18.668 21.215-6.531 5.248-13.306 8.322-20.25 8.322v1c7.25 0 14.24-3.21 20.876-8.543 6.637-5.332 12.953-12.814 18.867-21.428 11.828-17.228 22.103-39.068 30.142-57.539l-.917-.4zm-3.105 20.941l-19.836 79.344.97.242 19.836-79.344-.97-.242zm-19.26 79.957l35.226-6.498-.181-.984-35.226 6.498.181.984zm35.635-6.99v-.342h-1v.342h1zm-.31-.805c-3.724-1.523-6.346-3.199-8.134-5.11-1.779-1.903-2.754-4.063-3.147-6.602-.394-2.552-.2-5.494.379-8.952.579-3.457 1.535-7.392 2.648-11.928l-.971-.238c-1.111 4.527-2.077 8.5-2.664 12.001-.586 3.5-.798 6.564-.38 9.27.42 2.719 1.476 5.07 3.405 7.132 1.92 2.054 4.685 3.798 8.485 5.353l.379-.926zm-8.251-32.606L913.519 1.687l-.977-.21-49.248 229.482.977.21zM912.874 1.107l-34.2 11.286.313.95 34.2-11.286-.313-.95zM878.33 12.868v.684h1v-.684h-1zm.134 1.025c4.567 4.904 7.158 9.518 8.08 15.594.927 6.107.174 13.729-2.048 24.664l.98.198c2.225-10.953 3.011-18.721 2.057-25.012-.959-6.321-3.669-11.112-8.337-16.126l-.732.682zm6.034 40.252l-10.944 50.958.977.21 10.944-50.958-.977-.21zm-10.266 50.6c-7.592-3.106-16.55-4.825-26.866-4.825v1c10.205 0 19.031 1.701 26.487 4.751l.379-.926zm-26.866-4.825c-25.527 0-49.685 16.465-67.435 40.775-17.757 24.319-29.167 56.57-29.167 88.317h1c0-31.523 11.334-63.568 28.974-87.727 17.647-24.169 41.54-40.365 66.628-40.365v-1zm-96.602 129.092c0 15.097 2.829 26.248 8.131 33.637 5.322 7.416 13.094 10.981 22.807 10.981v-1c-9.438 0-16.886-3.446-21.994-10.565-5.129-7.146-7.944-18.054-7.944-33.053h-1zm30.938 44.618c15.437 0 29.585-9.538 42.234-24.459 12.656-14.93 23.88-35.329 33.465-57.237l-.917-.4c-9.567 21.868-20.744 42.167-33.311 56.991-12.574 14.833-26.469 24.105-41.471 24.105v1z" opacity=".4"/></svg>