<svg xmlns="http://www.w3.org/2000/svg" width="785" height="329" fill="none" viewbox="0 0 785 329"><path fill="#DABFB0" d="M23.685 253.736l-.499.028.027.472h.472v-.5zm6.84 0v.5h.324l.133-.295-.457-.205zm82.422-183.312l.5-.028-.956-.177.456.205zm10.26 183.312l-.499.028.027.472h.472v-.5zm6.84 0v.5h.325l.132-.297-.457-.203zm89.946-202.122l.457.203.001-.002-.458-.201zM252.825 1.34l.313.39.187-.15v-.24h-.5zm0-.684h.5v-.5h-.5v.5zm-36.594 0v-.5h-.5v.5h.5zm0 .684h-.5v.118l.053.106.447-.224zm-5.13 52.326l-.456-.204-.001.002.457.202zm-72.504 163.818l-.499.027.957.175-.458-.202zM129.705 54.35l.5-.027-.5.027zm10.26-53.01l.412.285.088-.129V1.34h-.5zm0-.684h.5v-.5h-.5v.5zm-39.672 0v-.5h-.5v.5h.5zm0 .684h-.5v.125l.06.11.44-.235zm11.628 52.668h.5v-.026l-.5.026zm0 .342l.457.204.043-.097v-.107h-.5zM39.075 217.142l-.499.027.956.177-.457-.204zM30.183 54.35l.5-.027v-.001l-.5.028zm9.918-53.01l.412.285.088-.129V1.34h-.5zm0-.684h.5v-.5h-.5v.5zm-38.646 0v-.5h-.5v.5h.5zm0 .684h-.5v.132l.065.115.435-.247zM12.4 54.008l-.499.026v.002l.5-.028zm11.286 200.228h6.84v-1h-6.84v1zm7.297-.295l82.421-183.312-.912-.41-82.422 183.312.913.41zm81.466-183.49l10.26 183.313.999-.056-10.26-183.312-.999.056zm10.759 183.785h6.84v-1h-6.84v1zm7.297-.297L220.45 51.817l-.913-.406-89.946 202.122.913.406zm89.947-202.124c7.354-16.76 12.127-26.556 16.76-33.526 4.619-6.95 9.105-11.101 15.927-16.559l-.625-.78c-6.859 5.486-11.435 9.713-16.135 16.786-4.687 7.052-9.491 16.922-16.842 33.677l.915.402zM253.325 1.34V.656h-1v.684h1zm-.5-1.184h-36.594v1h36.594v-1zm-37.094.5v.684h1V.656h-1zm.053.908c1.871 3.74 4.224 8.532 4.308 16.454.084 7.94-2.111 19.066-9.447 35.444l.913.408c7.37-16.455 9.62-27.729 9.534-35.863-.087-8.152-2.522-13.107-4.413-16.89l-.895.447zm-5.14 51.9L138.14 217.282l.915.404 72.504-163.818-.915-.404zm-71.547 163.993l-8.892-163.134-.999.054 8.892 163.134.999-.054zm-8.892-163.134c-1.706-31.038 4.093-43.918 10.172-52.698l-.823-.57c-6.233 9.004-12.062 22.117-10.348 53.322l.999-.054zm10.26-52.983V.656h-1v.684h1zm-.5-1.184h-39.672v1h39.672v-1zm-40.172.5v.684h1V.656h-1zm.06.92c2.729 5.117 5.187 9.95 7.181 17.63 1.998 7.693 3.534 18.257 4.388 34.828l.999-.052c-.856-16.603-2.398-27.243-4.419-35.026-2.024-7.795-4.525-12.71-7.267-17.851l-.883.47zm11.568 52.432v.342h1v-.342h-1zm.044.138L38.619 216.938l.913.408 72.846-162.792-.913-.408zm-71.89 162.969L30.683 54.323l-.999.054 8.892 162.792.999-.054zM30.683 54.322c-1.706-30.363 3.755-43.923 9.83-52.697l-.823-.57c-6.237 9.01-11.72 22.81-10.006 53.323l.999-.056zM40.6 1.34V.656h-1v.684h1zm-.5-1.184H1.455v1h38.646v-1zM.955.656v.684h1V.656h-1zm.065.93c2.89 5.1 5.177 9.929 6.96 17.608 1.785 7.695 3.066 18.262 3.92 34.84l.999-.052c-.856-16.596-2.14-27.233-3.946-35.014C7.144 11.172 4.814 6.253 1.89 1.093l-.87.494zm10.88 52.45l11.286 199.728.999-.056L12.899 53.98l-.999.056zm183.496 196.28l-.413-.282-.087.128v.154h.5zm0 .684h-.5v.5h.5v-.5zm30.096 0v.5h.5v-.5h-.5zm0-.684h.5v-.073l-.021-.069-.479.142zm1.026-41.382l-.488-.108-.001.003.489.105zm3.42-15.39l-.466-.181-.014.036-.008.037.488.108zm66.348-84.474l-.257.429.119.071h.138v-.5zm.684 0v.5h.335l.127-.309-.462-.191zm10.602-25.65l.462.191.286-.691h-.748v.5zm-71.82 81.054l-.488-.107.953.29-.465-.183zm18.126-82.764l.489.107.187-.857-.833.275.157.475zm-34.2 11.286l-.157-.475-.343.114v.361h.5zm0 .684h-.5v.167l.1.133.4-.3zm6.156 40.698l-.487-.114-.002.01.489.104zm-12.996 60.876l-.489-.104v.002l.489.102zm-17.942 55.062V251h1v-.684h-1zm.5 1.184h30.096v-1h-30.096v1zm30.596-.5v-.684h-1V251h1zm-.021-.826c-3.725-12.531-2.721-23.715 1.036-41.135l-.978-.21c-3.766 17.464-4.815 28.852-1.016 41.629l.958-.284zm1.035-41.132l3.42-15.39-.976-.216-3.42 15.39.976.216zm3.398-15.317c12.655-32.662 22.555-54.158 31.71-67.486 9.145-13.314 17.477-18.379 26.99-18.379v-1c-9.981 0-18.578 5.366-27.815 18.813-9.228 13.434-19.163 35.03-31.817 67.69l.932.362zm58.7-85.865c3.006 0 5.307.668 6.925 1.639l.514-.858c-1.802-1.081-4.288-1.781-7.439-1.781v1zm7.182 1.71h.684v-1h-.684v1zm1.146-.309l10.602-25.65-.924-.382-10.602 25.65.924.382zm10.14-26.341c-14.722 0-27.589 7.11-39.367 20.822-11.768 13.701-22.48 34.026-32.918 60.549l.93.366c10.424-26.487 21.087-46.689 32.746-60.263 11.65-13.563 24.261-20.474 38.609-20.474v-1zm-71.331 81.661l18.126-82.764-.977-.214-18.126 82.764.977.214zm17.48-83.346l-34.2 11.286.314.95 34.2-11.286-.314-.95zm-34.543 11.761v.684h1v-.684h-1zm.1.984c2.536 3.381 5.32 8.022 6.839 14.52 1.519 6.499 1.78 14.885-.77 25.764l.974.228c2.58-11.009 2.328-19.552.77-26.22-1.559-6.669-4.419-11.433-7.013-14.892l-.8.6zm6.067 40.294l-12.996 60.876.978.208 12.996-60.876-.978-.208zm-12.996 60.878c-5.14 24.671-7.86 40.963-17.366 54.882l.826.564c9.646-14.125 12.398-30.665 17.519-55.242l-.979-.204zm66.706 55.164l-.413-.282-.087.128v.154h.5zm0 .684h-.5v.5h.5v-.5zm30.096 0v.5h.5v-.5h-.5zm0-.684h.5v-.073l-.021-.069-.479.142zm1.026-41.382l.489.105.002-.009-.491-.096zM335.143 81.71l.491.096.167-.85-.82.281.162.473zm-32.832 11.286l-.162-.473-.338.116v.357h.5zm0 .684h-.5v.167l.1.133.4-.3zm6.156 40.698l-.49-.098v.002l.49.096zm-11.97 60.876l.49.102.001-.006-.491-.096zm54.536-169.632c0-8.142-6.38-14.522-14.522-14.522v1c7.59 0 13.522 5.932 13.522 13.522h1zM336.511 11.1c-8.142 0-14.522 6.38-14.522 14.522h1c0-7.59 5.932-13.522 13.522-13.522v-1zm-14.522 14.522c0 8.142 6.38 14.522 14.522 14.522v-1c-7.59 0-13.522-5.932-13.522-13.522h-1zm14.522 14.522c8.142 0 14.522-6.38 14.522-14.522h-1c0 7.59-5.932 13.522-13.522 13.522v1zm-57.956 210.172V251h1v-.684h-1zm.5 1.184h30.096v-1h-30.096v1zm30.596-.5v-.684h-1V251h1zm-.021-.826c-3.725-12.531-2.721-23.715 1.036-41.135l-.978-.21c-3.766 17.464-4.815 28.852-1.016 41.629l.958-.284zm1.038-41.144l24.966-127.224-.981-.192-24.966 127.224.981.192zm24.313-127.793l-32.832 11.286.325.946 32.832-11.286-.325-.946zm-33.17 11.759v.684h1v-.684h-1zm.1.984c5.043 6.724 10.485 18.206 6.066 40.3l.981.196c4.473-22.366-1.03-34.14-6.247-41.096l-.8.6zm6.066 40.302l-11.97 60.876.981.192 11.97-60.876-.981-.192zm-11.969 60.87c-5.14 24.671-7.86 40.963-17.366 54.882l.826.564c9.646-14.125 12.398-30.665 17.519-55.242l-.979-.204zm96.11 22.332l.439.241.22-.402-.381-.255-.278.416zm-3.078-2.052l.278-.416-.406-.27-.281.398.409.288zm-38.988 8.208l.489.107v-.002l-.489-.105zm27.702-128.934v-.5h-.404l-.085.395.489.105zm40.356 0v.5h.401l.087-.392-.488-.108zm1.368-6.156l.488.109.136-.609h-.624v.5zm-40.356 0l-.488-.106-.131.606h.619v-.5zm5.472-25.308l.489.106.131-.606h-.62v.5zm-.684 0v-.5h-.165l-.133.099.298.401zm-41.382 30.78l-.298-.401-.202.15v.251h.5zm0 .684h-.5v.5h.5v-.5zm18.81 0l.489.106.131-.606h-.62v.5zm-28.044 129.618l-.488-.106-.002.008.49.098zm16.074 32.306c7.524 0 14.992-3.674 22.227-10.35 7.236-6.676 14.278-16.388 20.962-28.555l-.877-.482c-6.654 12.115-13.635 21.726-20.763 28.302-7.129 6.577-14.366 10.085-21.549 10.085v1zm43.028-39.562l-3.078-2.052-.555.832 3.078 2.052.555-.832zm-3.765-1.924c-3.242 4.608-8.266 11.248-13.877 16.731-2.805 2.742-5.745 5.182-8.671 6.934-2.93 1.755-5.81 2.799-8.507 2.799v1c2.947 0 6.009-1.136 9.021-2.941 3.016-1.806 6.019-4.304 8.856-7.077 5.676-5.546 10.74-12.244 13.996-16.87l-.818-.576zm-31.055 26.464c-3.127 0-5.565-1.058-6.907-3.702-1.373-2.705-1.661-7.178-.128-14.159l-.977-.214c-1.546 7.041-1.321 11.802.213 14.826 1.566 3.084 4.429 4.249 7.799 4.249v-1zm-7.035-17.863l27.702-128.934-.978-.21-27.702 128.934.978.21zm27.213-128.539h40.356v-1h-40.356v1zm40.844-.392l1.368-6.155-.976-.218-1.368 6.156.976.218zm.88-6.764h-40.356v1h40.356v-1zm-39.867.606l5.472-25.308-.977-.212-5.472 25.308.977.212zm4.983-25.914h-.684v1h.684v-1zm-.982.099L342.23 93.62l.597.802 41.382-30.78-.597-.802zm-41.584 31.181v.684h1v-.684h-1zm.5 1.184h18.81v-1h-18.81v1zm18.322-.606l-28.044 129.618.977.212 28.044-129.618-.977-.212zm-28.046 129.626c-2.405 12.026-1.229 20.133 2.08 25.25 3.324 5.141 8.725 7.154 14.484 7.154v-1c-5.526 0-10.556-1.92-13.645-6.697-3.104-4.801-4.321-12.597-1.938-24.511l-.981-.196zm59.846 26.09l-.413-.282-.087.128v.154h.5zm0 .684h-.5v.5h.5v-.5zm30.096 0v.5h.5v-.5h-.5zm0-.684h.5v-.073l-.021-.069-.479.142zm1.026-41.382l.489.105.002-.009-.491-.096zM448.738 81.71l.491.096.167-.85-.821.281.163.473zm-32.832 11.286l-.163-.473-.337.116v.357h.5zm0 .684h-.5v.167l.1.133.4-.3zm6.156 40.698l-.49-.098-.001.002.491.096zm-11.97 60.876l.489.102.002-.006-.491-.096zm54.536-169.632c0-8.142-6.38-14.522-14.522-14.522v1c7.59 0 13.522 5.932 13.522 13.522h1zM450.106 11.1c-8.142 0-14.522 6.38-14.522 14.522h1c0-7.59 5.932-13.522 13.522-13.522v-1zm-14.522 14.522c0 8.142 6.38 14.522 14.522 14.522v-1c-7.59 0-13.522-5.932-13.522-13.522h-1zm14.522 14.522c8.142 0 14.522-6.38 14.522-14.522h-1c0 7.59-5.932 13.522-13.522 13.522v1zM392.15 250.316V251h1v-.684h-1zm.5 1.184h30.096v-1H392.65v1zm30.596-.5v-.684h-1V251h1zm-.021-.826c-3.725-12.531-2.721-23.715 1.036-41.135l-.978-.21c-3.767 17.464-4.815 28.852-1.016 41.629l.958-.284zm1.038-41.144l24.966-127.224-.982-.192-24.966 127.224.982.192zm24.312-127.793l-32.832 11.286.326.946 32.832-11.286-.326-.946zm-33.169 11.759v.684h1v-.684h-1zm.1.984c5.043 6.724 10.484 18.206 6.066 40.3l.98.196c4.474-22.366-1.029-34.14-6.246-41.096l-.8.6zm6.065 40.302l-11.97 60.876.982.192 11.97-60.876-.982-.192zm-11.969 60.87c-5.139 24.671-7.859 40.963-17.365 54.882l.826.564c9.646-14.125 12.398-30.665 17.518-55.242l-.979-.204zm151.475-66.588l-.488-.11v.002l.488.108zm-27.702 125.514l-.488-.108-.154.696.707-.092-.065-.496zm39.33-5.13l.065.496.435-.057v-.439h-.5zm0-.684h.5v-.448l-.446-.049-.054.497zm-13.68-36.594l-.488-.11-.001.006.489.104zm18.468-82.08l-.488-.11.488.11zm-101.232 41.724l-.488-.108.946.308-.458-.2zm19.836-89.604l.488.108.19-.858-.835.275.157.475zm-34.2 11.286l-.157-.475-.343.114v.361h.5zm0 .684h-.5v.167l.1.133.4-.3zm6.156 40.698l-.487-.114-.002.01.489.104zm-12.996 60.876l-.489-.104-.001.002.49.102zm-17.442 55.062l-.413-.282-.087.128v.154h.5zm0 .684h-.5v.5h.5v-.5zm30.096 0v.5h.5v-.5h-.5zm0-.684h.5v-.073l-.021-.069-.479.142zm1.026-41.382l-.488-.111-.001.006.489.105zm3.42-15.048l-.457-.204-.02.045-.011.048.488.111zm88.432-65.43L532.887 253.97l.976.216 27.702-125.514-.976-.216zM533.44 254.574l39.33-5.13-.13-.992-39.33 5.13.13.992zm39.765-5.626v-.684h-1v.684h1zm-.446-1.181c-4.673-.51-8.14-1.44-10.643-2.911-2.482-1.458-4.039-3.461-4.879-6.187-.847-2.749-.972-6.251-.531-10.699.441-4.443 1.44-9.786 2.808-16.196l-.978-.208c-1.369 6.415-2.378 11.803-2.825 16.305-.446 4.498-.335 8.156.57 11.093.913 2.959 2.627 5.167 5.328 6.755 2.681 1.575 6.31 2.526 11.042 3.042l.108-.994zm-13.246-35.987l18.468-82.08-.976-.22-18.468 82.08.976.22zm18.468-82.08c3.26-14.413 2.853-26.082-.846-34.176-1.853-4.055-4.533-7.213-7.987-9.355-3.453-2.14-7.652-3.249-12.517-3.249v1c4.711 0 8.72 1.072 11.99 3.1 3.268 2.026 5.824 5.023 7.605 8.92 3.569 7.809 4.017 19.225.779 33.54l.976.22zm-21.35-46.78c-14.241 0-28.988 9.54-42.868 25.263-13.896 15.741-27.003 37.764-37.961 62.931l.917.4c10.931-25.107 23.987-47.031 37.793-62.669 13.822-15.656 28.316-24.925 42.119-24.925v-1zm-79.882 88.502l19.836-89.604-.976-.216-19.836 89.604.976.216zm19.191-90.187l-34.2 11.286.314.95 34.2-11.286-.314-.95zm-34.543 11.761v.684h1v-.684h-1zm.1.984c2.536 3.381 5.319 8.022 6.839 14.52 1.519 6.499 1.78 14.885-.77 25.764l.974.228c2.58-11.009 2.328-19.552.769-26.22-1.559-6.669-4.418-11.433-7.012-14.892l-.8.6zm6.067 40.294l-12.996 60.876.978.208 12.996-60.876-.978-.208zm-12.997 60.878c-5.139 24.671-7.859 40.963-17.365 54.882l.826.564c9.646-14.125 12.398-30.665 17.518-55.242l-.979-.204zm-17.452 55.164V251h1v-.684h-1zm.5 1.184h30.096v-1h-30.096v1zm30.596-.5v-.684h-1V251h1zm-.021-.826c-3.725-12.531-2.721-23.715 1.036-41.135l-.978-.21c-3.767 17.464-4.815 28.852-1.016 41.629l.958-.284zm1.034-41.129l3.421-15.048-.976-.222-3.42 15.048.975.222zm3.39-14.955c15.552-34.864 29.894-59.102 42.594-74.614 12.722-15.54 23.708-22.218 32.531-22.218v-1c-9.303 0-20.547 7.002-33.304 22.584-12.78 15.61-27.165 39.936-42.735 74.84l.914.408zm75.125-96.832c3.412 0 6.123.913 8.226 2.511 2.107 1.601 3.639 3.915 4.64 6.773 2.008 5.731 1.855 13.577-.016 21.912l.976.22c1.891-8.423 2.08-16.48-.016-22.463-1.051-2.998-2.682-5.493-4.979-7.238-2.3-1.748-5.232-2.715-8.831-2.715v1zm88.255 142.456l.103-.489-.013-.003-.013-.002-.077.494zm-20.52-41.724l.175-.468-.168-.063-.169.058.162.473zm59.508-104.994l.104-.489-1.842-.392 1.405 1.254.333-.373zm36.936 7.866l-.104.489.051.011h.053v-.5zm1.368 0v.5h.402l.086-.392-.488-.108zm4.446-20.178l.488.108.134-.608h-.622v.5zm-.342 0v-.5h-.043l-.042.007.085.493zm-47.88 8.208l-.261.427.16.097.185-.031-.084-.493zM610.002 196.28l.162.473 1.231-.423-1.198-.51-.195.46zm-6.498 50.958l.067.495 1.561-.212-1.398-.727-.23.444zm4.446 2.052l.185-.464-.134-.054-.142.026.091.492zm21.546 5.472l.105-.489-.007-.001-.098.49zm-24.466-95.418c0-20.955 5.196-38.295 13.296-50.38 8.1-12.087 19.076-18.888 30.664-18.888v-1c-12.011 0-23.265 7.05-31.495 19.331-8.231 12.282-13.465 29.826-13.465 50.937h1zm43.96-69.268c3.959 0 7.209.716 9.862 2.107 2.649 1.389 4.731 3.466 6.335 6.236 3.221 5.565 4.507 13.915 4.507 25.015h1c0-11.13-1.28-19.709-4.642-25.516-1.688-2.915-3.902-5.135-6.736-6.62-2.83-1.484-6.248-2.222-10.326-2.222v1zm20.704 33.358c0 20.955-5.197 38.295-13.296 50.38-8.101 12.087-19.077 18.888-30.664 18.888v1c12.01 0 23.264-7.05 31.494-19.331 8.231-12.282 13.466-29.826 13.466-50.937h-1zm-43.96 69.268c-3.959 0-7.21-.716-9.862-2.107-2.649-1.389-4.732-3.466-6.335-6.236-3.222-5.565-4.507-13.915-4.507-25.015h-1c0 11.13 1.279 19.709 4.641 25.516 1.688 2.915 3.902 5.135 6.736 6.621 2.83 1.483 6.249 2.221 10.327 2.221v-1zm56.246 82.58c0-13.224-7.069-21.32-16.328-26.555-9.228-5.218-20.678-7.624-29.555-9.502l-.207.978c8.908 1.884 20.2 4.266 29.27 9.394 9.038 5.11 15.82 12.917 15.82 25.685h1zm-45.909-36.062c-8.706-1.366-17.527-3.493-24.16-7.168-6.617-3.667-10.985-8.829-10.985-16.278h-1c0 7.941 4.695 13.381 11.501 17.153 6.79 3.763 15.754 5.911 24.489 7.281l.155-.988zm-35.145-23.446c0-3.168.749-6.479 2.94-9.496 2.191-3.019 5.857-5.788 11.77-7.815l-.324-.946c-6.058 2.077-9.916 4.951-12.256 8.173-2.341 3.225-3.13 6.754-3.13 10.084h1zm14.372-17.316c2.822 1.058 6.315 1.4 10.436 1.4v-1c-4.087 0-7.435-.342-10.085-1.336l-.351.936zm10.436 1.4c14.72 0 30.746-8.733 43.073-22.005 12.335-13.28 21.039-31.18 21.039-49.631h-1c0 18.143-8.567 35.811-20.771 48.95-12.212 13.148-27.991 21.686-42.341 21.686v1zm64.112-71.636c0-13.446-4.826-26.933-14.531-35.599l-.666.746c9.446 8.434 14.197 21.623 14.197 34.853h1zm-14.968-34.737l36.936 7.866.208-.978-36.936-7.866-.208.978zm37.04 7.877h1.368v-1h-1.368v1zm1.856-.392l4.446-20.178-.977-.216-4.446 20.178.977.216zm3.958-20.786h-.342v1h.342v-1zm-.427.007l-47.88 8.208.169.986 47.88-8.208-.169-.986zm-47.535 8.274c-6.244-3.816-13.177-5.545-20.78-5.545v1c7.444 0 14.192 1.69 20.259 5.399l.521-.854zm-20.78-5.545c-14.72 0-30.747 8.733-43.074 22.005-12.334 13.28-21.038 31.18-21.038 49.631h1c0-18.143 8.567-35.811 20.771-48.95C618.86 92.458 634.64 83.92 648.99 83.92v-1zm-64.112 71.636c0 17.581 8.619 35.244 24.928 42.184l.391-.92c-15.838-6.74-24.319-23.961-24.319-41.264h-1zm24.961 41.251c-11.079 3.809-21.541 13.193-21.541 28.517h1c0-14.772 10.058-23.856 20.866-27.571l-.325-.946zm-21.541 28.517c0 6.077 1.564 10.798 4.239 14.568 2.669 3.763 6.419 6.545 10.736 8.79l.461-.888c-4.232-2.201-7.835-4.891-10.382-8.481-2.541-3.583-4.054-8.096-4.054-13.989h-1zm15.138 22.419c-13.907 1.888-27.67 6.526-37.97 13.853-10.308 7.332-17.182 17.386-17.182 30.076h1c0-12.276 6.635-22.058 16.761-29.261 10.134-7.208 23.731-11.804 37.526-13.678l-.135-.99zm-55.152 43.929c0 12.184 6.626 21.65 17.343 28.046 10.703 6.387 25.506 9.732 41.981 9.732v-1c-16.358 0-30.967-3.324-41.468-9.591-10.487-6.258-16.856-15.431-16.856-27.187h-1zm59.324 37.778c46.324 0 74.372-26.792 74.372-53.168h-1c0 25.608-27.356 52.168-73.372 52.168v1zm4.788-9.55c-16.526 0-28.031-3.494-35.393-9.131-7.343-5.623-10.619-13.42-10.619-22.175h-1c0 9.029 3.392 17.135 11.011 22.969 7.601 5.82 19.353 9.337 36.001 9.337v-1zm-46.012-31.306c0-9.265 3.532-17.427 10.486-23.916 6.963-6.5 17.381-11.343 31.171-13.896l-.182-.984c-13.913 2.577-24.528 7.481-31.672 14.148-7.154 6.678-10.803 15.103-10.803 24.648h1zm41.38-37.84c6.894 2.758 14.816 4.135 21.634 5.498l.196-.98c-6.863-1.373-14.672-2.732-21.459-5.446l-.371.928zm21.626 5.497c8.766 1.89 18.684 3.501 26.439 7.187 3.865 1.838 7.156 4.177 9.481 7.292 2.319 3.107 3.7 7.019 3.7 12.05h1c0-5.229-1.441-9.354-3.899-12.648-2.453-3.287-5.895-5.715-9.853-7.597-7.891-3.752-17.981-5.39-26.657-7.262l-.211.978zm39.62 26.529c0 9.895-5.28 19.159-15.006 25.967-9.73 6.811-23.902 11.153-41.608 11.153v1c17.861 0 32.246-4.379 42.181-11.334 9.939-6.957 15.433-16.503 15.433-26.786h-1zm114.583-159.03l.122.485.391-.098-.013-.403-.5.016zm-1.026-32.49l.5-.016-.009-.282-.246-.138-.245.436zm-93.708 113.544l.474-.161-.149-.436-.446.112.121.485zm-2.736.684l-.121-.485-.389.097.011.401.499-.013zm1.026 38.646l-.499.013.005.221.168.145.326-.379zm93.708-119.7l-.457.201.17.386.409-.102-.122-.485zm3.236-.7l-1.026-32.49-.999.032 1.026 32.49.999-.032zm-1.281-32.91c-5.55-3.122-16.921-6.904-30.341-6.904v1c13.256 0 24.457 3.742 29.851 6.776l.49-.872zm-30.341-6.904c-11.548 0-22.531 3.361-30.636 10.338-8.115 6.987-13.298 17.562-13.298 31.886h1c0-14.062 5.078-24.349 12.951-31.128 7.884-6.788 18.618-10.096 29.983-10.096v-1zm-43.934 42.224c0 22.109 12.8 36.177 25.448 49.296 12.695 13.166 25.168 25.329 25.168 43.728h1c0-18.879-12.834-31.34-25.448-44.422-12.659-13.13-25.168-26.935-25.168-48.602h-1zm50.616 93.024c0 18.918-12.128 31.306-27.886 31.306v1c16.391 0 28.886-12.92 28.886-32.306h-1zm-27.886 31.306c-16.066 0-31.344-14.743-41.934-45.831l-.947.322c10.614 31.156 26.115 46.509 42.881 46.509v-1zm-42.529-46.155l-2.736.684.243.97 2.736-.684-.243-.97zm-3.114 1.182l1.026 38.646.999-.026-1.026-38.646-.999.026zm1.199 39.012c10.032 8.648 24.865 13.117 39.998 13.117v-1c-14.962 0-29.541-4.423-39.345-12.875l-.653.758zm39.998 13.117c13.095 0 24.852-3.963 33.342-11.76 8.495-7.802 13.67-19.4 13.67-34.568h-1c0 14.928-5.085 26.244-13.347 33.832-8.268 7.593-19.767 11.496-32.665 11.496v1zm47.012-46.328c0-23.639-12.956-38.728-25.788-52.158-6.43-6.73-12.806-13.021-17.588-19.79-4.771-6.755-7.924-13.944-7.924-22.444h-1c0 8.771 3.261 16.159 8.108 23.021 4.836 6.847 11.286 13.21 17.681 19.903 12.818 13.417 25.511 28.253 25.511 51.468h1zm-51.3-94.392c0-7.26 2.111-13.723 5.997-18.36 3.878-4.63 9.55-7.474 16.759-7.474v-1c-7.496 0-13.452 2.97-17.526 7.831-4.065 4.853-6.23 11.557-6.23 19.003h1zm22.756-25.834c12.011 0 23.853 7.973 35.111 33.559l.915-.402c-11.314-25.714-23.412-34.157-36.026-34.157v1zm35.69 33.843l2.736-.684-.243-.97-2.736.684.243.97z" opacity=".4"/></svg>